REM DIRINDEX 1\4,1\2\5,1\2\6,1\3\7,1\3\8
REM DIRNAME folder01,folder02,folder03,folder04,folder05,folder06,folder07,folder08
TITLE ""
FILE "030_Day15_Check3_Sentences.mp3" MP3
  TRACK 01 AUDIO
    TITLE "0:"
    INDEX 01 00:00:00
  TRACK 02 AUDIO
    TITLE "4:cjc124_0960"
    INDEX 01 00:00:25
  TRACK 03 AUDIO
    TITLE "0:"
    INDEX 01 00:01:52
  TRACK 04 AUDIO
    TITLE "7:cjc124_0961"
    INDEX 01 00:02:28
  TRACK 05 AUDIO
    TITLE "0:"
    INDEX 01 00:04:07
  TRACK 06 AUDIO
    TITLE "8:cjc124_0962"
    INDEX 01 00:04:23
  TRACK 07 AUDIO
    TITLE "0:"
    INDEX 01 00:06:16
  TRACK 08 AUDIO
    TITLE "7:cjc124_0963"
    INDEX 01 00:06:53
  TRACK 09 AUDIO
    TITLE "0:"
    INDEX 01 00:09:22
  TRACK 10 AUDIO
    TITLE "8:cjc124_0964"
    INDEX 01 00:09:40
  TRACK 11 AUDIO
    TITLE "0:"
    INDEX 01 00:12:01
  TRACK 12 AUDIO
    TITLE "7:cjc124_0965"
    INDEX 01 00:12:36
  TRACK 13 AUDIO
    TITLE "0:"
    INDEX 01 00:15:01
  TRACK 14 AUDIO
    TITLE "8:cjc124_0966"
    INDEX 01 00:15:21
  TRACK 15 AUDIO
    TITLE "0:"
    INDEX 01 00:19:20
  TRACK 16 AUDIO
    TITLE "7:cjc124_0967"
    INDEX 01 00:19:58
  TRACK 17 AUDIO
    TITLE "0:"
    INDEX 01 00:21:70
  TRACK 18 AUDIO
    TITLE "8:cjc124_0968"
    INDEX 01 00:22:15
  TRACK 19 AUDIO
    TITLE "0:"
    INDEX 01 00:24:55
  TRACK 20 AUDIO
    TITLE "7:cjc124_0969"
    INDEX 01 00:25:19
  TRACK 21 AUDIO
    TITLE "0:"
    INDEX 01 00:27:26
  TRACK 22 AUDIO
    TITLE "8:cjc124_0970"
    INDEX 01 00:27:41
  TRACK 23 AUDIO
    TITLE "0:"
    INDEX 01 00:30:16
  TRACK 24 AUDIO
    TITLE "7:cjc124_0971"
    INDEX 01 00:30:57
  TRACK 25 AUDIO
    TITLE "0:"
    INDEX 01 00:33:46
  TRACK 26 AUDIO
    TITLE "8:cjc124_0972"
    INDEX 01 00:33:64
  TRACK 27 AUDIO
    TITLE "0:"
    INDEX 01 00:37:16
  TRACK 28 AUDIO
    TITLE "7:cjc124_0973"
    INDEX 01 00:37:59
  TRACK 29 AUDIO
    TITLE "0:"
    INDEX 01 00:40:46
  TRACK 30 AUDIO
    TITLE "8:cjc124_0974"
    INDEX 01 00:40:64
  TRACK 31 AUDIO
    TITLE "0:"
    INDEX 01 00:43:74
  TRACK 32 AUDIO
    TITLE "7:cjc124_0975"
    INDEX 01 00:44:36
  TRACK 33 AUDIO
    TITLE "0:"
    INDEX 01 00:48:40
  TRACK 34 AUDIO
    TITLE "8:cjc124_0976"
    INDEX 01 00:48:57
  TRACK 35 AUDIO
    TITLE "0:"
    INDEX 01 00:52:16
  TRACK 36 AUDIO
    TITLE "7:cjc124_0977"
    INDEX 01 00:52:55
  TRACK 37 AUDIO
    TITLE "0:"
    INDEX 01 00:54:64
  TRACK 38 AUDIO
    TITLE "8:cjc124_0978"
    INDEX 01 00:55:06
  TRACK 39 AUDIO
    TITLE "0:"
    INDEX 01 00:57:41
  TRACK 40 AUDIO
    TITLE "7:cjc124_0979"
    INDEX 01 00:58:03
  TRACK 41 AUDIO
    TITLE "0:"
    INDEX 01 01:01:05
  TRACK 42 AUDIO
    TITLE "8:cjc124_0980"
    INDEX 01 01:01:21
  TRACK 43 AUDIO
    TITLE "0:"
    INDEX 01 01:04:37
  TRACK 44 AUDIO
    TITLE "7:cjc124_0981"
    INDEX 01 01:04:74
  TRACK 45 AUDIO
    TITLE "0:"
    INDEX 01 01:07:25
  TRACK 46 AUDIO
    TITLE "8:cjc124_0982"
    INDEX 01 01:07:43
  TRACK 47 AUDIO
    TITLE "0:"
    INDEX 01 01:10:43
  TRACK 48 AUDIO
    TITLE "7:cjc124_0983"
    INDEX 01 01:11:07
  TRACK 49 AUDIO
    TITLE "0:"
    INDEX 01 01:13:34
  TRACK 50 AUDIO
    TITLE "8:cjc124_0984"
    INDEX 01 01:13:53
  TRACK 51 AUDIO
    TITLE "0:"
    INDEX 01 01:16:05
  TRACK 52 AUDIO
    TITLE "7:cjc124_0985"
    INDEX 01 01:16:42
  TRACK 53 AUDIO
    TITLE "0:"
    INDEX 01 01:19:17
  TRACK 54 AUDIO
    TITLE "8:cjc124_0986"
    INDEX 01 01:19:30
  TRACK 55 AUDIO
    TITLE "0:"
    INDEX 01 01:21:49
  TRACK 56 AUDIO
    TITLE "7:cjc124_0987"
    INDEX 01 01:22:09
  TRACK 57 AUDIO
    TITLE "0:"
    INDEX 01 01:24:53
  TRACK 58 AUDIO
    TITLE "8:cjc124_0988"
    INDEX 01 01:24:69
  TRACK 59 AUDIO
    TITLE "0:"
    INDEX 01 01:27:61
  TRACK 60 AUDIO
    TITLE "7:cjc124_0989"
    INDEX 01 01:28:25
  TRACK 61 AUDIO
    TITLE "0:"
    INDEX 01 01:30:40
  TRACK 62 AUDIO
    TITLE "8:cjc124_0990"
    INDEX 01 01:30:56
  TRACK 63 AUDIO
    TITLE "0:"
    INDEX 01 01:33:52
  TRACK 64 AUDIO
    TITLE "7:cjc124_0991"
    INDEX 01 01:34:16
  TRACK 65 AUDIO
    TITLE "0:"
    INDEX 01 01:36:25
  TRACK 66 AUDIO
    TITLE "8:cjc124_0992"
    INDEX 01 01:36:45
  TRACK 67 AUDIO
    TITLE "0:"
    INDEX 01 01:39:02
